<svg width="26" height="22" viewBox="0 0 26 22" fill="none" xmlns="http://www.w3.org/2000/svg">
<path fill-rule="evenodd" clip-rule="evenodd" d="M9.90857 19.4032C9.90702 20.22 9.24389 20.881 8.42711 20.8799C7.61032 20.8789 6.94888 20.2162 6.9494 19.3994C6.94992 18.5826 7.6122 17.9208 8.42899 17.9208C8.82177 17.9212 9.19832 18.0775 9.4758 18.3555C9.75327 18.6336 9.90895 19.0104 9.90857 19.4032V19.4032Z" stroke="#8E8E8E" stroke-width="1.5" stroke-linecap="round" stroke-linejoin="round"/>
<path fill-rule="evenodd" clip-rule="evenodd" d="M17.7994 19.4032C17.7978 20.22 17.1347 20.881 16.3179 20.8799C15.5011 20.8789 14.8397 20.2162 14.8402 19.3994C14.8407 18.5826 15.503 17.9208 16.3198 17.9208C16.7126 17.9212 17.0891 18.0775 17.3666 18.3555C17.6441 18.6336 17.7998 19.0104 17.7994 19.4032V19.4032Z" stroke="#8E8E8E" stroke-width="1.5" stroke-linecap="round" stroke-linejoin="round"/>
<path fill-rule="evenodd" clip-rule="evenodd" d="M23.191 5.07324H8.92175L7.93347 12.9794C7.93347 14.0711 8.8184 14.956 9.91002 14.956L20.9321 13.8265C21.6262 13.8262 22.2693 13.4618 22.6263 12.8665L24.8852 8.0663C25.2513 7.45581 25.2608 6.69563 24.9102 6.07615C24.5595 5.45666 23.9029 5.07358 23.191 5.07324Z" stroke="#8E8E8E" stroke-width="1.5" stroke-linecap="round" stroke-linejoin="round"/>
<path d="M5.21012 7.36068C5.62433 7.36068 5.96012 7.02489 5.96012 6.61068C5.96012 6.19646 5.62433 5.86068 5.21012 5.86068V7.36068ZM1.16666 5.86068C0.752451 5.86068 0.416664 6.19646 0.416664 6.61068C0.416664 7.02489 0.752451 7.36068 1.16666 7.36068V5.86068ZM5.21004 10.6545C5.62426 10.6545 5.96004 10.3187 5.96004 9.90446C5.96004 9.49025 5.62426 9.15446 5.21004 9.15446V10.6545ZM3.89423 9.15446C3.48002 9.15446 3.14423 9.49025 3.14423 9.90446C3.14423 10.3187 3.48002 10.6545 3.89423 10.6545V9.15446ZM8.19409 5.25467C8.29434 5.65657 8.70141 5.90111 9.10331 5.80086C9.50521 5.70061 9.74974 5.29354 9.64949 4.89164L8.19409 5.25467ZM7.97728 1.28665L8.705 1.10513L8.70378 1.10036L7.97728 1.28665ZM7.76127 1.12006V1.87007L7.76567 1.87005L7.76127 1.12006ZM3.9903 0.37006C3.57609 0.37006 3.2403 0.705846 3.2403 1.12006C3.2403 1.53427 3.57609 1.87006 3.9903 1.87006V0.37006ZM5.21012 5.86068H1.16666V7.36068H5.21012V5.86068ZM5.21004 9.15446H3.89423V10.6545H5.21004V9.15446ZM9.64949 4.89164L8.70499 1.10514L7.24958 1.46817L8.19409 5.25467L9.64949 4.89164ZM8.70378 1.10036C8.59305 0.668537 8.20267 0.367459 7.75688 0.370073L7.76567 1.87005C7.52327 1.87147 7.311 1.70775 7.25079 1.47295L8.70378 1.10036ZM7.76127 0.37006H3.9903V1.87006H7.76127V0.37006Z" fill="#8E8E8E"/>
</svg>
