<svg width="20" height="20" viewBox="0 0 20 20" fill="none" xmlns="http://www.w3.org/2000/svg">
<g clip-path="url(#clip0_28_1928)">
<path d="M12.2028 10.0003L19.6805 2.52222C19.8862 2.31637 19.9997 2.04173 20 1.74889C20 1.45588 19.8865 1.18092 19.6805 0.975391L19.0252 0.320269C18.8192 0.113927 18.5446 0.000919342 18.2514 0.000919342C17.9587 0.000919342 17.6841 0.113927 17.478 0.320269L10.0003 7.79783L2.52228 0.320269C2.31659 0.113927 2.04179 0.000919342 1.74878 0.000919342C1.4561 0.000919342 1.1813 0.113927 0.97561 0.320269L0.32 0.975391C-0.106667 1.40206 -0.106667 2.09604 0.32 2.52222L7.79789 10.0003L0.32 17.478C0.114146 17.6842 0.000813008 17.9588 0.000813008 18.2517C0.000813008 18.5445 0.114146 18.8191 0.32 19.0251L0.975447 19.6803C1.18114 19.8864 1.4561 19.9996 1.74862 19.9996C2.04163 19.9996 2.31642 19.8864 2.52211 19.6803L10.0002 12.2025L17.4779 19.6803C17.6839 19.8864 17.9585 19.9996 18.2512 19.9996H18.2515C18.5444 19.9996 18.819 19.8864 19.025 19.6803L19.6803 19.0251C19.886 18.8193 19.9995 18.5445 19.9995 18.2517C19.9995 17.9588 19.886 17.6842 19.6803 17.4782L12.2028 10.0003Z" fill="white"/>
</g>
<defs>
<clipPath id="clip0_28_1928">
<rect width="20" height="20" fill="white"/>
</clipPath>
</defs>
</svg>
