<svg width="17" height="22" viewBox="0 0 17 22" fill="none" xmlns="http://www.w3.org/2000/svg">
<path fill-rule="evenodd" clip-rule="evenodd" d="M14.6447 6.71437H2.73921C2.082 6.71437 1.54922 7.24714 1.54922 7.90435V17.4285C1.54922 19.4009 3.14818 20.9999 5.1206 20.9999H12.2633C13.2105 20.9999 14.1189 20.6236 14.7887 19.9538C15.4584 19.2841 15.8347 18.3757 15.8347 17.4285V7.90435C15.8347 7.24714 15.3019 6.71437 14.6447 6.71437Z" stroke="#8E8E8E" stroke-width="1.5" stroke-linecap="round" stroke-linejoin="round"/>
<path fill-rule="evenodd" clip-rule="evenodd" d="M12.9776 3.85722L12.8262 3.55579C12.0432 1.98946 10.4424 1 8.69124 1C6.94011 1 5.3393 1.98946 4.55631 3.55579L4.40631 3.85722H12.9776Z" stroke="#8E8E8E" stroke-width="1.5" stroke-linecap="round" stroke-linejoin="round"/>
<path d="M7.06056 11.4757C7.06056 11.0615 6.72478 10.7257 6.31056 10.7257C5.89635 10.7257 5.56056 11.0615 5.56056 11.4757H7.06056ZM5.56056 16.2371C5.56056 16.6513 5.89635 16.9871 6.31056 16.9871C6.72478 16.9871 7.06056 16.6513 7.06056 16.2371H5.56056ZM11.8233 11.4757C11.8233 11.0615 11.4876 10.7257 11.0733 10.7257C10.6591 10.7257 10.3233 11.0615 10.3233 11.4757H11.8233ZM10.3233 16.2371C10.3233 16.6513 10.6591 16.9871 11.0733 16.9871C11.4876 16.9871 11.8233 16.6513 11.8233 16.2371H10.3233ZM12.9776 3.10725C12.5634 3.10725 12.2276 3.44304 12.2276 3.85725C12.2276 4.27147 12.5634 4.60725 12.9776 4.60725V3.10725ZM15.8347 4.60725C16.2489 4.60725 16.5847 4.27147 16.5847 3.85725C16.5847 3.44304 16.2489 3.10725 15.8347 3.10725V4.60725ZM4.40632 4.60725C4.82054 4.60725 5.15632 4.27147 5.15632 3.85725C5.15632 3.44304 4.82054 3.10725 4.40632 3.10725V4.60725ZM1.54922 3.10725C1.13501 3.10725 0.799225 3.44304 0.799225 3.85725C0.799225 4.27147 1.13501 4.60725 1.54922 4.60725V3.10725ZM5.56056 11.4757V16.2371H7.06056V11.4757H5.56056ZM10.3233 11.4757V16.2371H11.8233V11.4757H10.3233ZM12.9776 4.60725H15.8347V3.10725H12.9776V4.60725ZM4.40632 3.10725H1.54922V4.60725H4.40632V3.10725Z" fill="#8E8E8E"/>
</svg>
