<svg width="21" height="21" viewBox="0 0 21 21" fill="none" xmlns="http://www.w3.org/2000/svg">
<path d="M10.4999 1.75022C10.9141 1.75022 11.2499 1.41443 11.2499 1.00022C11.2499 0.586005 10.9141 0.250219 10.4999 0.250219V1.75022ZM20.7498 10.5001C20.7498 10.0859 20.414 9.75013 19.9998 9.75013C19.5856 9.75013 19.2498 10.0859 19.2498 10.5001H20.7498ZM20.0001 1.75003C20.4143 1.75003 20.7501 1.41424 20.7501 1.00003C20.7501 0.585817 20.4143 0.250031 20.0001 0.250031V1.75003ZM14.4521 0.250031C14.0379 0.250031 13.7021 0.585817 13.7021 1.00003C13.7021 1.41424 14.0379 1.75003 14.4521 1.75003V0.250031ZM20.7499 1.00022C20.7499 0.586005 20.4141 0.250219 19.9999 0.250219C19.5857 0.250219 19.2499 0.586005 19.2499 1.00022H20.7499ZM19.2499 6.6201C19.2499 7.03431 19.5857 7.3701 19.9999 7.3701C20.4141 7.3701 20.7499 7.03431 20.7499 6.6201H19.2499ZM20.5302 1.53055C20.8231 1.23766 20.8231 0.762782 20.5302 0.469889C20.2374 0.176996 19.7625 0.176996 19.4696 0.469889L20.5302 1.53055ZM9.96967 9.9698C9.67678 10.2627 9.67678 10.7376 9.96967 11.0305C10.2626 11.3234 10.7374 11.3234 11.0303 11.0305L9.96967 9.9698ZM10.4999 0.250219H6.42852V1.75022H10.4999V0.250219ZM6.42852 0.250219C3.01622 0.250219 0.25 3.01644 0.25 6.42874H1.75C1.75 3.84486 3.84465 1.75022 6.42852 1.75022V0.250219ZM0.25 6.42874V14.5715H1.75V6.42874H0.25ZM0.25 14.5715C0.25 17.9838 3.01622 20.75 6.42852 20.75V19.25C3.84465 19.25 1.75 17.1554 1.75 14.5715H0.25ZM6.42852 20.75H14.5713V19.25H6.42852V20.75ZM14.5713 20.75C17.9836 20.75 20.7498 17.9838 20.7498 14.5715H19.2498C19.2498 17.1554 17.1552 19.25 14.5713 19.25V20.75ZM20.7498 14.5715V10.5001H19.2498V14.5715H20.7498ZM20.0001 0.250031H14.4521V1.75003H20.0001V0.250031ZM19.2499 1.00022V6.6201H20.7499V1.00022H19.2499ZM19.4696 0.469889L9.96967 9.9698L11.0303 11.0305L20.5302 1.53055L19.4696 0.469889Z" fill="#8E8E8E"/>
</svg>
