<svg width="16" height="16" viewBox="0 0 16 16" fill="none" xmlns="http://www.w3.org/2000/svg">
<path d="M3.75005 4.5C3.75005 4.91421 4.08584 5.25 4.50005 5.25C4.91426 5.25 5.25005 4.91421 5.25005 4.5H3.75005ZM4.50005 4.267H5.25006L5.25004 4.26283L4.50005 4.267ZM5.43892 1.96432L5.97218 2.49171L5.43892 1.96432ZM7.73105 1V0.249989L7.72691 0.250011L7.73105 1ZM11.769 1L11.7732 0.25H11.769V1ZM14.0612 1.96432L13.5279 2.49171V2.49171L14.0612 1.96432ZM15 4.267L14.25 4.26283V4.267H15ZM15 8.233H14.25L14.2501 8.23717L15 8.233ZM14.0612 10.5357L13.5279 10.0083L14.0612 10.5357ZM11.769 11.5V12.25L11.7732 12.25L11.769 11.5ZM11.5 10.75C11.0858 10.75 10.75 11.0858 10.75 11.5C10.75 11.9142 11.0858 12.25 11.5 12.25V10.75ZM4.50005 5.25C4.91426 5.25 5.25005 4.91421 5.25005 4.5C5.25005 4.08579 4.91426 3.75 4.50005 3.75V5.25ZM4.23105 4.5V3.74999L4.22691 3.75001L4.23105 4.5ZM1.93892 5.46432L2.47218 5.99171L1.93892 5.46432ZM1.00005 7.767H1.75006L1.75004 7.76283L1.00005 7.767ZM1.00005 11.734L1.75005 11.7379V11.734H1.00005ZM4.23105 15L4.22691 15.75H4.23105V15ZM8.26905 15V15.75L8.27319 15.75L8.26905 15ZM10.5612 14.0357L10.0279 13.5083L10.5612 14.0357ZM11.5 11.733H10.75L10.7501 11.7372L11.5 11.733ZM12.25 11.5C12.25 11.0858 11.9143 10.75 11.5 10.75C11.0858 10.75 10.75 11.0858 10.75 11.5H12.25ZM4.50005 3.75C4.08584 3.75 3.75005 4.08579 3.75005 4.5C3.75005 4.91421 4.08584 5.25 4.50005 5.25V3.75ZM8.26905 4.5L8.27319 3.75H8.26905V4.5ZM10.5612 5.46432L11.0944 4.93694V4.93694L10.5612 5.46432ZM11.5001 7.767L10.7501 7.76283V7.767H11.5001ZM10.7501 11.5C10.7501 11.9142 11.0858 12.25 11.5001 12.25C11.9143 12.25 12.2501 11.9142 12.2501 11.5H10.7501ZM5.25005 4.5V4.267H3.75005V4.5H5.25005ZM5.25004 4.26283C5.24636 3.60005 5.50612 2.96296 5.97218 2.49171L4.90566 1.43694C4.15985 2.19106 3.74417 3.21056 3.75006 4.27117L5.25004 4.26283ZM5.97218 2.49171C6.43824 2.02046 7.07241 1.75365 7.73519 1.74999L7.72691 0.250011C6.6663 0.255871 5.65146 0.682823 4.90566 1.43694L5.97218 2.49171ZM7.73105 1.75H11.769V0.25H7.73105V1.75ZM11.7649 1.74999C12.4277 1.75365 13.0619 2.02046 13.5279 2.49171L14.5944 1.43694C13.8486 0.682823 12.8338 0.255871 11.7732 0.250011L11.7649 1.74999ZM13.5279 2.49171C13.994 2.96296 14.2537 3.60005 14.2501 4.26283L15.75 4.27117C15.7559 3.21056 15.3402 2.19106 14.5944 1.43694L13.5279 2.49171ZM14.25 4.267V8.233H15.75V4.267H14.25ZM14.2501 8.23717C14.2537 8.89995 13.994 9.53704 13.5279 10.0083L14.5944 11.0631C15.3402 10.3089 15.7559 9.28944 15.75 8.22883L14.2501 8.23717ZM13.5279 10.0083C13.0619 10.4795 12.4277 10.7463 11.7649 10.75L11.7732 12.25C12.8338 12.2441 13.8486 11.8172 14.5944 11.0631L13.5279 10.0083ZM11.769 10.75H11.5V12.25H11.769V10.75ZM4.50005 3.75H4.23105V5.25H4.50005V3.75ZM4.22691 3.75001C3.1663 3.75587 2.15146 4.18282 1.40566 4.93694L2.47218 5.99171C2.93824 5.52046 3.57241 5.25365 4.23519 5.24999L4.22691 3.75001ZM1.40566 4.93694C0.659851 5.69106 0.24417 6.71056 0.250062 7.77117L1.75004 7.76283C1.74636 7.10005 2.00612 6.46296 2.47218 5.99171L1.40566 4.93694ZM0.25005 7.767V11.734H1.75005V7.767H0.25005ZM0.250061 11.7301C0.238473 13.9382 2.01879 15.7378 4.22691 15.75L4.2352 14.25C2.85533 14.2424 1.7428 13.1178 1.75004 11.7379L0.250061 11.7301ZM4.23105 15.75H8.26905V14.25H4.23105V15.75ZM8.27319 15.75C9.3338 15.7441 10.3486 15.3172 11.0944 14.5631L10.0279 13.5083C9.56186 13.9795 8.92769 14.2463 8.26491 14.25L8.27319 15.75ZM11.0944 14.5631C11.8402 13.8089 12.2559 12.7894 12.25 11.7288L10.7501 11.7372C10.7537 12.3999 10.494 13.037 10.0279 13.5083L11.0944 14.5631ZM12.25 11.733V11.5H10.75V11.733H12.25ZM4.50005 5.25H8.26905V3.75H4.50005V5.25ZM8.26491 5.24999C8.92769 5.25365 9.56186 5.52046 10.0279 5.99171L11.0944 4.93694C10.3486 4.18282 9.3338 3.75587 8.27319 3.75001L8.26491 5.24999ZM10.0279 5.99171C10.494 6.46296 10.7537 7.10005 10.7501 7.76283L12.25 7.77117C12.2559 6.71056 11.8402 5.69106 11.0944 4.93694L10.0279 5.99171ZM10.7501 7.767V11.5H12.2501V7.767H10.7501Z" fill="white"/>
</svg>
