<svg width="26" height="27" viewBox="0 0 26 27" fill="none" xmlns="http://www.w3.org/2000/svg">
<path d="M13 26.5C20.1797 26.5 26 20.6797 26 13.5C26 6.32031 20.1797 0.5 13 0.5C5.82031 0.5 0 6.32031 0 13.5C0 20.6797 5.82031 26.5 13 26.5Z" fill="#34AADF"/>
<path d="M5.57272 13.2153C5.57272 13.2153 12.0123 10.4757 14.2456 9.51103C15.1017 9.12519 18.0051 7.8904 18.0051 7.8904C18.0051 7.8904 19.3451 7.35023 19.2335 8.66213C19.1962 9.20236 18.8984 11.0931 18.6007 13.1381C18.154 16.0321 17.6701 19.1962 17.6701 19.1962C17.6701 19.1962 17.5956 20.0837 16.9629 20.238C16.3301 20.3923 15.2878 19.6978 15.1017 19.5434C14.9528 19.4277 12.31 17.6913 11.3422 16.8424C11.0817 16.6109 10.7839 16.1479 11.3794 15.6077C12.7195 14.3343 14.32 12.7523 15.2878 11.7491C15.7345 11.286 16.1812 10.2056 14.32 11.5175C11.6772 13.4083 9.07166 15.1832 9.07166 15.1832C9.07166 15.1832 8.47608 15.5691 7.35941 15.2218C6.24269 14.8745 4.93989 14.4115 4.93989 14.4115C4.93989 14.4115 4.0466 13.8327 5.57272 13.2153Z" fill="white"/>
</svg>
