<svg width="49" height="48" viewBox="0 0 49 48" fill="none" xmlns="http://www.w3.org/2000/svg">
<g clip-path="url(#clip0_4845_9835)">
<rect x="0.75" width="48" height="48" fill="#8755A7"/>
<path d="M19.1486 33.8123C19.1486 33.4099 19.1486 33.0076 19.1486 32.6052C19.1514 32.5888 19.1509 32.5719 19.1469 32.5557C19.1429 32.5395 19.1356 32.5242 19.1254 32.5109C19.1153 32.4976 19.1025 32.4865 19.0878 32.4783C19.0731 32.4701 19.0569 32.465 19.0402 32.4632C18.0337 32.1799 17.1048 31.6752 16.3225 30.9867C15.7526 30.473 15.2781 29.8642 14.9205 29.1879C14.4166 28.2111 14.0812 27.1576 13.9283 26.071C13.7388 24.7081 13.673 23.331 13.7317 21.9564C13.7445 21.3156 13.7776 20.682 13.8511 20.0412C13.9683 18.8233 14.2784 17.6314 14.7699 16.5092C15.3767 15.1293 16.4777 14.0209 17.8605 13.3977C18.8025 12.9706 19.7934 12.6588 20.8115 12.4692C21.8099 12.2819 22.8207 12.1669 23.836 12.1251C24.7512 12.0931 25.6674 12.1064 26.5812 12.1652C27.8891 12.2199 29.1852 12.4345 30.4399 12.8042C31.3702 13.0699 32.2553 13.4719 33.0657 13.9967C33.8553 14.5338 34.494 15.2612 34.9215 16.1105C35.4242 17.1023 35.7659 18.1665 35.934 19.2638C36.0432 19.9152 36.115 20.5723 36.149 21.2318C36.1968 22.0493 36.1912 22.8704 36.16 23.6842C36.1288 24.498 36.059 25.2882 35.9579 26.0856C35.8301 27.2825 35.4588 28.4413 34.8664 29.492C34.0953 30.8211 32.8601 31.8249 31.3936 32.3139C30.3908 32.6619 29.3555 32.9095 28.3029 33.0531C27.533 33.1587 26.7613 33.2351 25.9859 33.2661C25.3924 33.2934 24.7988 33.2861 24.2053 33.277C23.8691 33.277 23.5347 33.2443 23.2002 33.2151C23.1674 33.209 23.1335 33.2126 23.1027 33.2256C23.072 33.2386 23.0458 33.2603 23.0275 33.2879C22.3513 34.0927 21.6494 34.8755 20.942 35.6547C20.8131 35.7969 20.6639 35.9196 20.4991 36.0189C20.391 36.0892 20.2676 36.1333 20.1391 36.1477C20.0105 36.162 19.8804 36.1463 19.7591 36.1016C19.6379 36.057 19.5289 35.9847 19.4411 35.8906C19.3532 35.7965 19.2889 35.6833 19.2533 35.5601C19.1833 35.3411 19.1486 35.1125 19.1504 34.8828C19.1486 34.5223 19.1486 34.1673 19.1486 33.8123ZM19.9663 35.3398L20.0526 35.2597L21.5869 33.572C22.1774 32.9226 22.7672 32.2726 23.3564 31.6221C23.3854 31.5824 23.4245 31.551 23.4697 31.5312C23.5148 31.5114 23.5645 31.5038 23.6137 31.5092C23.814 31.5292 24.0142 31.5365 24.2164 31.5383C24.9146 31.5383 25.6129 31.5383 26.3111 31.4892C26.945 31.44 27.5771 31.3636 28.2055 31.2652C28.8821 31.1485 29.5519 30.996 30.2121 30.8083C31.6821 30.4168 32.8195 29.5794 33.5342 28.223C33.9562 27.3891 34.2209 26.4858 34.3152 25.5576C34.4269 24.6828 34.4937 23.8029 34.5155 22.9214C34.548 21.814 34.4717 20.7061 34.2876 19.6133C34.16 18.8216 33.9302 18.0494 33.6041 17.3157C33.1888 16.4054 32.6008 15.6517 31.6949 15.1674C30.3058 14.4246 28.8027 14.0932 27.2537 13.9239C26.8146 13.8766 26.3754 13.8511 25.9344 13.8347C25.0314 13.7886 24.1265 13.7934 23.2241 13.8493C22.5751 13.897 21.9296 13.9833 21.2911 14.1078C20.352 14.2774 19.4436 14.5842 18.5955 15.0181C18.1038 15.2642 17.6577 15.5911 17.2762 15.9848C16.6578 16.6696 16.2042 17.4845 15.9495 18.368C15.6474 19.397 15.4824 20.4608 15.4589 21.5322C15.3998 22.6037 15.4133 23.6778 15.4993 24.7474C15.5529 25.384 15.6604 26.0149 15.8209 26.6336C16.0596 27.5977 16.5228 28.493 17.1733 29.248C17.8756 30.0182 18.7833 30.5762 19.7917 30.8574C19.9185 30.8957 19.9755 30.9394 19.9755 31.0814C19.9644 31.6057 19.9755 32.13 19.9755 32.6544L19.9663 35.3398Z" fill="white"/>
<path d="M18.6803 19.0782C18.6674 18.6795 18.8861 18.39 19.1507 18.1296C19.4997 17.7984 19.8841 17.506 20.2973 17.2576C20.4857 17.1425 20.7097 17.0986 20.9281 17.134C21.1465 17.1695 21.3447 17.2819 21.4861 17.4506C21.986 17.9712 22.4334 18.5388 22.822 19.1455C23.0144 19.4185 23.1597 19.7212 23.252 20.0413C23.2888 20.1662 23.2912 20.2986 23.2589 20.4248C23.2266 20.551 23.1607 20.6662 23.0682 20.7586C22.8562 20.9648 22.6303 21.1564 22.392 21.3321C22.2719 21.4269 22.1827 21.5546 22.1353 21.6993C22.0879 21.844 22.0845 21.9993 22.1256 22.1459C22.2727 22.8343 22.6062 23.4699 23.0903 23.9847C23.6784 24.6962 24.4362 25.2512 25.2952 25.5996C25.5063 25.7072 25.7482 25.7399 25.9806 25.6925C26.1079 25.6581 26.2211 25.5848 26.304 25.4831C26.4326 25.3211 26.5723 25.1645 26.688 24.9915C26.8382 24.7758 27.0674 24.6267 27.3269 24.576C27.5864 24.5253 27.8557 24.5771 28.0772 24.7203C28.7 25.0783 29.2881 25.4928 29.8338 25.9583C29.9624 26.0675 30.0966 26.1731 30.2252 26.2842C30.3774 26.3992 30.4873 26.5605 30.5381 26.7433C30.5889 26.9262 30.5777 27.1205 30.5063 27.2964C30.3928 27.5923 30.2273 27.866 30.0176 28.1048C29.7569 28.4638 29.4248 28.7661 29.0419 28.9932C28.8588 29.0998 28.6531 29.1623 28.4412 29.1759C28.2293 29.1895 28.0172 29.1538 27.8218 29.0715C26.3351 28.4785 24.946 27.6691 23.7003 26.6701C22.4819 25.6763 21.4171 24.5109 20.5398 23.211C19.8017 22.1349 19.2145 20.9645 18.7942 19.7318C18.7495 19.5827 18.7127 19.4314 18.684 19.2785C18.6758 19.212 18.6746 19.1449 18.6803 19.0782Z" fill="white"/>
<path d="M25.0244 17.141C26.2682 17.1637 27.4645 17.6183 28.4047 18.4255C29.345 19.2327 29.9695 20.3412 30.1693 21.5578C30.2498 22.0001 30.2928 22.4483 30.298 22.8977C30.298 23.0033 30.2704 23.0798 30.1565 23.0907C30.0426 23.1017 30.0132 23.0052 30.0132 22.9087C30.0302 21.9996 29.8419 21.0982 29.4619 20.2706C29.1419 19.5905 28.6679 18.9928 28.0767 18.5239C27.4855 18.055 26.7931 17.7275 26.0534 17.567C25.6623 17.4773 25.2623 17.4309 24.8608 17.4286C24.8218 17.4293 24.7828 17.4244 24.7451 17.4141C24.713 17.4051 24.6857 17.3841 24.6689 17.3556C24.6521 17.3271 24.6471 17.2932 24.655 17.2611C24.6553 17.2459 24.6586 17.2309 24.6647 17.2169C24.6709 17.203 24.6798 17.1904 24.6909 17.1799C24.702 17.1694 24.7151 17.1612 24.7295 17.1557C24.7438 17.1503 24.7591 17.1478 24.7745 17.1482C24.8572 17.1373 24.9417 17.141 25.0244 17.141Z" fill="white"/>
<path d="M28.5717 22.0784C28.5655 21.5727 28.4398 21.0753 28.2046 20.6264C27.9694 20.1774 27.6313 19.7893 27.2174 19.4932C26.7344 19.157 26.1728 18.9483 25.5857 18.8869C25.4865 18.8742 25.3873 18.8687 25.2862 18.8578C25.1852 18.8469 25.1245 18.805 25.1337 18.703C25.1429 18.6011 25.2072 18.5647 25.3175 18.5719C26.9455 18.6703 28.331 19.5824 28.7572 21.281C28.8352 21.6085 28.8741 21.944 28.873 22.2805C28.873 22.3115 28.873 22.3424 28.873 22.3716C28.873 22.4626 28.8142 22.5227 28.7242 22.5209C28.7042 22.5202 28.6846 22.5155 28.6665 22.5071C28.6484 22.4986 28.6323 22.4866 28.619 22.4718C28.6058 22.457 28.5957 22.4397 28.5895 22.4208C28.5832 22.402 28.5809 22.3822 28.5827 22.3625C28.568 22.2769 28.5717 22.1895 28.5717 22.0784Z" fill="white"/>
<path d="M25.7195 20.0502C26.6125 20.1103 27.2354 20.5436 27.4063 21.4848C27.427 21.6054 27.4417 21.7269 27.4504 21.849C27.4504 21.9473 27.4283 22.031 27.3199 22.031C27.2115 22.031 27.1748 21.9582 27.1711 21.849C27.1701 21.4881 27.0579 21.1362 26.8495 20.8403C26.6306 20.5723 26.3162 20.3977 25.9712 20.3524C25.8941 20.3381 25.8162 20.3284 25.7379 20.3233C25.6092 20.3233 25.5376 20.2596 25.5541 20.1612C25.5706 20.0629 25.6478 20.0447 25.7195 20.0502Z" fill="white"/>
</g>
<defs>
<clipPath id="clip0_4845_9835">
<rect x="0.75" width="48" height="48" rx="12" fill="white"/>
</clipPath>
</defs>
</svg>
