<svg width="49" height="48" viewBox="0 0 49 48" fill="none" xmlns="http://www.w3.org/2000/svg">
<g clip-path="url(#clip0_4845_9834)">
<rect x="0.5" width="48" height="48" fill="#2787F5"/>
<path fill-rule="evenodd" clip-rule="evenodd" d="M38.5052 17.0888C38.708 16.4543 38.5052 15.988 37.5398 15.988H34.3474C33.5357 15.988 33.1615 16.3908 32.9585 16.835C32.9585 16.835 31.3351 20.547 29.0353 22.9581C28.2912 23.6561 27.953 23.8782 27.5471 23.8782C27.3442 23.8782 27.0505 23.6561 27.0505 23.0216V17.0888C27.0505 16.3274 26.8149 15.988 26.1384 15.988H21.1219C20.6146 15.988 20.3095 16.3414 20.3095 16.6764C20.3095 17.3982 21.4594 17.5647 21.5779 19.5952V24.0051C21.5779 24.972 21.3918 25.1473 20.9859 25.1473C19.9037 25.1473 17.2712 21.4187 15.7098 17.1523C15.4038 16.323 15.0969 15.988 14.2811 15.988H11.0887C10.1766 15.988 9.99414 16.3908 9.99414 16.835C9.99414 17.6281 11.0764 21.5622 15.0334 26.7653C17.6714 30.3186 21.3882 32.2447 24.7703 32.2447C26.7995 32.2447 27.0505 31.8169 27.0505 31.08V28.3945C27.0505 27.5389 27.2428 27.3681 27.8854 27.3681C28.3589 27.3681 29.1706 27.5902 31.0646 29.3034C33.2291 31.3339 33.5859 32.2447 34.8035 32.2447H37.9958C38.9079 32.2447 39.364 31.8169 39.1009 30.9727C38.813 30.1312 37.7796 28.9104 36.4083 27.4633C35.6642 26.6384 34.5481 25.7501 34.2099 25.3058C33.7364 24.7348 33.8717 24.481 34.2099 23.9734C34.2099 23.9734 38.0993 18.8337 38.5052 17.0888Z" fill="white"/>
</g>
<defs>
<clipPath id="clip0_4845_9834">
<rect x="0.5" width="48" height="48" rx="12" fill="white"/>
</clipPath>
</defs>
</svg>
