<svg width="49" height="48" viewBox="0 0 49 48" fill="none" xmlns="http://www.w3.org/2000/svg">
<g clip-path="url(#clip0_4845_9833)">
<rect x="0.25" width="48" height="48" fill="#00D95F"/>
<path d="M12.25 35.1114L13.9719 28.7088C12.5832 26.2147 12.142 23.3042 12.7293 20.5115C13.3165 17.7189 14.8929 15.2313 17.169 13.5052C19.4451 11.7792 22.2684 10.9305 25.1208 11.1149C27.9731 11.2993 30.6631 12.5044 32.6973 14.5091C34.7315 16.5137 35.9733 19.1835 36.1949 22.0285C36.4165 24.8735 35.603 27.7028 33.9037 29.9973C32.2044 32.2918 29.7332 33.8976 26.9437 34.52C24.1542 35.1424 21.2335 34.7396 18.7175 33.3856L12.25 35.1114ZM19.0293 30.9897L19.4293 31.2265C21.2517 32.3049 23.3803 32.7512 25.4833 32.4958C27.5862 32.2404 29.5455 31.2976 31.0558 29.8144C32.5661 28.3312 33.5425 26.391 33.8328 24.2959C34.1232 22.2009 33.7113 20.0688 32.6612 18.232C31.6111 16.3951 29.9818 14.9566 28.0274 14.1406C26.0729 13.3247 23.9029 13.1771 21.8556 13.721C19.8084 14.2648 17.9988 15.4694 16.7089 17.1472C15.419 18.825 14.7213 20.8816 14.7244 22.9966C14.7227 24.7502 15.2085 26.47 16.1278 27.9643L16.3786 28.3772L15.4159 31.9507L19.0293 30.9897Z" fill="white"/>
<path fill-rule="evenodd" clip-rule="evenodd" d="M28.7375 24.6407C28.503 24.4519 28.2284 24.319 27.9347 24.2521C27.641 24.1853 27.3359 24.1862 27.0426 24.2549C26.602 24.4376 26.3172 25.128 26.0325 25.4732C25.9725 25.5559 25.8843 25.6139 25.7844 25.6364C25.6845 25.6588 25.5799 25.6441 25.4902 25.595C23.8769 24.9642 22.5247 23.8074 21.6531 22.3125C21.5787 22.2192 21.5436 22.1007 21.5549 21.9821C21.5663 21.8634 21.6234 21.7538 21.7141 21.6763C22.0317 21.3624 22.2648 20.9737 22.392 20.546C22.4203 20.0743 22.312 19.6044 22.0802 19.1924C21.9009 18.6148 21.5598 18.1004 21.0972 17.7102C20.8585 17.603 20.594 17.5671 20.3353 17.6067C20.0767 17.6464 19.8351 17.7599 19.6396 17.9335C19.3003 18.2258 19.031 18.5903 18.8515 19.0003C18.6719 19.4103 18.5868 19.8552 18.6024 20.3024C18.6034 20.5535 18.6353 20.8035 18.6973 21.0468C18.8547 21.6315 19.0968 22.1902 19.4159 22.705C19.6461 23.0994 19.8973 23.4812 20.1684 23.8488C21.0494 25.0562 22.1569 26.0814 23.4293 26.8674C24.0678 27.2668 24.7502 27.5916 25.4631 27.8352C26.2036 28.1703 27.0212 28.299 27.829 28.2075C28.2893 28.1379 28.7254 27.9565 29.099 27.6791C29.4726 27.4018 29.7721 27.037 29.9713 26.617C30.0883 26.3632 30.1239 26.0795 30.073 25.8048C29.951 25.243 29.1985 24.9114 28.7375 24.6407Z" fill="white"/>
</g>
<defs>
<clipPath id="clip0_4845_9833">
<rect x="0.25" width="48" height="48" rx="12" fill="white"/>
</clipPath>
</defs>
</svg>
