<svg width="12" height="12" viewBox="0 0 12 12" fill="none" xmlns="http://www.w3.org/2000/svg">
<path d="M11.0573 1.87048C11.3136 1.61421 11.3136 1.19872 11.0573 0.942446C10.801 0.686177 10.3855 0.686177 10.1293 0.942446L5.99976 5.07197L1.87024 0.942446C1.61397 0.686177 1.19847 0.686177 0.942202 0.942446C0.685933 1.19872 0.685933 1.61421 0.942202 1.87048L5.07172 6L0.942202 10.1295C0.685933 10.3858 0.685933 10.8013 0.942202 11.0576C1.19847 11.3138 1.61397 11.3138 1.87024 11.0576L5.99976 6.92803L10.1293 11.0576C10.3855 11.3138 10.801 11.3138 11.0573 11.0576C11.3136 10.8013 11.3136 10.3858 11.0573 10.1295L6.92779 6L11.0573 1.87048Z" fill="#D50000"/>
</svg>
